#!OML:ASF X:\für Bonn\!DataBase\2005_08_12_Daniel\c3d\Daniel.ASF
:FULLY-SPECIFIED
:DEGREES
152
root 0.306962 9.09998 -3.17738 155.931 -12.5553 -182.483
lowerback 81.029 -11.173 23.5665
upperback 10.0221 -4.06547 0.33806
thorax -7.07081 -6.02371 -5.55779
lowerneck 8.96697 -8.4112 -5.73063
upperneck 9.81796 -12.7327 2.22451
head 2.17272 -6.72936 1.70992
rclavicle 5.725e-014 -3.81667e-014
rhumerus 12.7505 -19.5645 -67.5494
rradius 13.1622
rwrist 39.4996
rhand -33.3033 8.49626
rfingers 7.12502
rthumb -6.50706 -21.3838
lclavicle 5.725e-014 -3.81667e-014
lhumerus -33.9952 -19.5331 96.6278
lradius 113.141
lwrist -7.18956
lhand -33.3978 -5.54188
lfingers 7.12502
lthumb -6.59828 24.3353
rfemur -43.8941 -56.6086 -30.2384
rtibia 140.853
rfoot -23.713 51.1037
rtoes -1.40995
lfemur -65.6872 35.2897 -16.3971
ltibia 139.877
lfoot -35.3222 -26.7327
ltoes 2.53518
153
root 0.300117 9.17039 -3.18694 156.212 -12.5634 -182.457
lowerback 80.8759 -11.1222 23.5403
upperback 10.062 -4.05201 0.326613
thorax -7.05092 -5.99804 -5.58325
lowerneck 8.9994 -8.40965 -5.85428
upperneck 9.70567 -12.7359 2.36973
head 2.15036 -6.72902 1.7814
rclavicle -5.08889e-014 -1.17681e-013
rhumerus 13.0484 -20.3212 -67.8129
rradius 13.0477
rwrist 39.821
rhand -32.6907 8.60104
rfingers 7.12502
rthumb -5.91563 -21.2964
lclavicle -5.08889e-014 -1.17681e-013
lhumerus -33.7449 -19.6137 96.5773
lradius 112.751
lwrist -7.08424
lhand -33.2703 -5.6143
lfingers 7.12502
lthumb -6.47518 24.2667
rfemur -45.2092 -55.5201 -28.0751
rtibia 140.328
rfoot -23.0782 50.2352
rtoes -1.52807
lfemur -65.5803 34.3257 -16.8225
ltibia 139.345
lfoot -35.2 -26.2649
ltoes 2.5128
154
root 0.292765 9.24468 -3.19595 156.486 -12.5593 -182.442
lowerback 80.735 -11.0623 23.5059
upperback 10.1063 -4.03852 0.317069
thorax -7.02521 -5.97429 -5.60396
lowerneck 9.00175 -8.40932 -5.95839
upperneck 9.58341 -12.7335 2.49042
head 2.12611 -6.72481 1.84071
rclavicle -1.59028e-013 -5.24792e-014
rhumerus 13.3353 -20.882 -68.0167
rradius 12.9523
rwrist 39.8909
rhand -32.1595 8.75819
rfingers 7.12502
rthumb -5.40274 -21.1529
lclavicle -1.59028e-013 -5.24792e-014
lhumerus -33.4897 -19.7643 96.4899
lradius 112.371
lwrist -6.86823
lhand -33.1619 -5.55214
lfingers 7.12502
lthumb -6.37054 24.3321
rfemur -46.5328 -54.2569 -25.8609
rtibia 139.753
rfoot -22.2765 49.3309
rtoes -1.57605
lfemur -65.4134 33.3513 -17.2313
ltibia 138.777
lfoot -35.1026 -25.7824
ltoes 2.41944
155
root 0.285559 9.32408 -3.20407 156.776 -12.558 -182.407
lowerback 80.5878 -10.9827 23.4403
upperback 10.1477 -4.03073 0.336596
thorax -7.00728 -5.95945 -5.577
lowerneck 8.97309 -8.38177 -6.13785
upperneck 9.46968 -12.7003 2.62922
head 2.11517 -6.70787 1.91671
rclavicle -2.22639e-014 -1.27222e-014
rhumerus 13.662 -21.3831 -68.2332
rradius 12.8943
rwrist 40.0265
rhand -31.7359 8.865
rfingers 7.12502
rthumb -4.99377 -21.0562
lclavicle -2.22639e-014 -1.27222e-014
lhumerus -33.23 -19.7949 96.4339
lradius 111.951
lwrist -6.68499
lhand -33.0659 -5.64649
lfingers 7.12502
lthumb -6.27787 24.2405
rfemur -47.8489 -52.8448 -23.5806
rtibia 139.145
rfoot -21.5224 48.301
rtoes -1.63543
lfemur -65.2076 32.3691 -17.6044
ltibia 138.159
lfoot -35.0226 -25.3241
ltoes 2.35224
156
root 0.277217 9.40602 -3.21247 157.081 -12.5722 -182.389
lowerback 80.3998 -10.923 23.3889
upperback 10.1972 -4.03694 0.319049
thorax -6.98742 -5.93956 -5.59639
lowerneck 8.93524 -8.3729 -6.26628
upperneck 9.38212 -12.6888 2.75655
head 2.11104 -6.70012 1.97941
rclavicle 6.36111e-014 -3.49861e-014
rhumerus 14.0186 -22.1374 -68.576
rradius 12.7886
rwrist 40.3748
rhand -31.453 9.01582
rfingers 7.12502
rthumb -4.72055 -20.9116
lclavicle 6.36111e-014 -3.49861e-014
lhumerus -32.9616 -19.8933 96.3273
lradius 111.509
lwrist -6.47684
lhand -32.9908 -5.59022
lfingers 7.12502
lthumb -6.20537 24.2989
rfemur -48.9571 -51.4477 -21.5356
rtibia 138.521
rfoot -20.9417 47.2724
rtoes -1.8276
lfemur -65.0091 31.2924 -18.037
ltibia 137.514
lfoot -34.9132 -24.8018
ltoes 2.31512
157
root 0.269385 9.4927 -3.22076 157.405 -12.5744 -182.383
lowerback 80.2116 -10.8546 23.3277
upperback 10.2361 -4.03183 0.288836
thorax -6.98226 -5.91148 -5.63166
lowerneck 8.9083 -8.36203 -6.35227
upperneck 9.28074 -12.6691 2.87083
head 2.0959 -6.6869 2.03211
rclavicle -1.43125e-014 -1.11319e-014
rhumerus 14.2864 -22.6563 -68.8481
rradius 12.7669
rwrist 40.4597
rhand -31.3495 9.10571
rfingers 7.12502
rthumb -4.62065 -20.8239
lclavicle -1.43125e-014 -1.11319e-014
lhumerus -32.6966 -19.9915 96.2272
lradius 111.031
lwrist -6.2751
lhand -32.8679 -5.5621
lfingers 7.12502
lthumb -6.08666 24.3305
rfemur -50.074 -49.9054 -19.4533
rtibia 137.86
rfoot -20.3414 46.1431
rtoes -1.98368
lfemur -64.7668 30.2286 -18.4508
ltibia 136.812
lfoot -34.7793 -24.335
ltoes 2.35123
158
root 0.260914 9.58165 -3.22848 157.712 -12.5774 -182.345
lowerback 80.0395 -10.8024 23.2816
upperback 10.2612 -4.02407 0.261379
thorax -6.98757 -5.88421 -5.66653
lowerneck 8.83703 -8.36121 -6.40658
upperneck 9.20695 -12.657 2.93096
head 2.09129 -6.67723 2.05891
rclavicle -1.11319e-013 -1.90833e-014
rhumerus 14.6314 -23.3086 -69.2131
rradius 12.6748
rwrist 40.7209
rhand -31.39 9.13833
rfingers 7.12502
rthumb -4.65975 -20.7904
lclavicle -1.11319e-013 -1.90833e-014
lhumerus -32.4214 -20.0797 96.1056
lradius 110.548
lwrist -6.06784
lhand -32.7401 -5.43738
lfingers 7.12502
lthumb -5.96332 24.4587
rfemur -51.0152 -48.3049 -17.467
rtibia 137.159
rfoot -19.8093 44.9839
rtoes -2.20358
lfemur -64.5125 29.1635 -18.8189
ltibia 136.111
lfoot -34.6976 -23.8301
ltoes 2.25796
159
root 0.252053 9.67445 -3.23743 158.04 -12.5813 -182.335
lowerback 79.8658 -10.7425 23.1943
upperback 10.2641 -4.02566 0.21818
thorax -7.02895 -5.85783 -5.70054
lowerneck 8.78305 -8.34221 -6.51623
upperneck 9.16668 -12.6327 3.02258
head 2.10075 -6.66455 2.10525
rclavicle 6.83819e-014 6.04305e-014
rhumerus 14.9362 -23.7633 -69.5618
rradius 12.6086
rwrist 40.7759
rhand -31.5491 9.16847
rfingers 7.12502
rthumb -4.81333 -20.7569
lclavicle 6.83819e-014 6.04305e-014
lhumerus -32.164 -20.1378 96.0023
lradius 110.04
lwrist -5.86429
lhand -32.6169 -5.32114
lfingers 7.12502
lthumb -5.8443 24.5783
rfemur -51.8209 -46.7079 -15.669
rtibia 136.442
rfoot -19.3117 43.8673
rtoes -2.30123
lfemur -64.2022 28.132 -19.199
ltibia 135.358
lfoot -34.6265 -23.3352
ltoes 2.23352
